<svg xmlns="http://www.w3.org/2000/svg" xmlns:xlink="http://www.w3.org/1999/xlink"><symbol id="icon-burger" viewBox="0 0 16 12">
<path d="M0 1H16M0 6H16M0 11H16" stroke="#1F1E25" stroke-linejoin="round"/>
</symbol><symbol id="icon-close-popup" viewBox="0 0 18 18">
<path d="M1 1L17 17M17 1L1 17" stroke="#1F1E25" stroke-width="2" stroke-linecap="round" stroke-linejoin="round"/>
</symbol><symbol id="icon-eye-close" viewBox="0 0 22 12">
<path d="M8.29878 12L6.33638 11.4893L7.13618 8.59185C5.93899 8.16352 4.82634 7.5393 3.84654 6.7463L1.65854 8.86987L0.220528 7.47486L2.40955 5.35228C1.17386 3.91662 0.343585 2.19431 0 0.353927L2 0C2.77134 4.14262 6.50711 7.28557 11 7.28557C15.4919 7.28557 19.2287 4.14262 20 0L22 0.352941C21.6569 2.19358 20.827 3.91624 19.5915 5.35228L21.7795 7.47486L20.3415 8.86987L18.1535 6.7463C17.1737 7.5393 16.061 8.16352 14.8638 8.59185L15.6636 11.4903L13.7012 12L12.9004 9.10155C11.6426 9.31063 10.3574 9.31063 9.0996 9.10155L8.29878 12Z" fill="#1F1E25"/>
</symbol><symbol id="icon-open-popup" viewBox="0 0 20 22">
<path d="M2.22222 14.3H4.44444V19.8H17.7778V2.2H4.44444V7.7H2.22222V1.1C2.22222 0.808262 2.33929 0.528472 2.54766 0.322183C2.75603 0.115892 3.03865 0 3.33333 0H18.8889C19.1836 0 19.4662 0.115892 19.6746 0.322183C19.8829 0.528472 20 0.808262 20 1.1V20.9C20 21.1917 19.8829 21.4715 19.6746 21.6778C19.4662 21.8841 19.1836 22 18.8889 22H3.33333C3.03865 22 2.75603 21.8841 2.54766 21.6778C2.33929 21.4715 2.22222 21.1917 2.22222 20.9V14.3ZM8.88889 9.9V6.6L14.4444 11L8.88889 15.4V12.1H0V9.9H8.88889Z" fill="#1F1E25"/>
</symbol><symbol id="logo-big-popup" viewBox="0 0 151 31">
<path d="M52.1 15H49.08V3.24H45.58C45.5 3.85333 45.4133 4.52 45.32 5.24C45.24 5.96 45.1467 6.69333 45.04 7.44C44.9467 8.17333 44.8467 8.87333 44.74 9.54C44.6333 10.1933 44.5267 10.7733 44.42 11.28C44.2467 12.1067 44.0133 12.8133 43.72 13.4C43.44 13.9867 43.0467 14.4333 42.54 14.74C42.0467 15.0467 41.4 15.2 40.6 15.2C40.08 15.2 39.6 15.1267 39.16 14.98V12.5C39.3333 12.5533 39.5 12.6 39.66 12.64C39.8333 12.68 40.02 12.7 40.22 12.7C40.6067 12.7 40.9 12.5 41.1 12.1C41.3133 11.6867 41.5267 10.92 41.74 9.8C41.82 9.37333 41.9333 8.70667 42.08 7.8C42.2267 6.89333 42.3867 5.83333 42.56 4.62C42.7467 3.39333 42.92 2.09333 43.08 0.719999H52.1V15ZM55.7023 0.719999H58.4223V7.62C58.4223 7.95333 58.4157 8.32667 58.4023 8.74C58.389 9.15333 58.3757 9.56 58.3623 9.96C58.349 10.3467 58.3357 10.6867 58.3223 10.98C58.309 11.26 58.2957 11.4533 58.2823 11.56H58.3423L64.9423 0.719999H68.5623V15H65.8623V8.14C65.8623 7.78 65.869 7.38667 65.8823 6.96C65.8957 6.52 65.909 6.1 65.9223 5.7C65.949 5.3 65.969 4.95333 65.9823 4.66C66.009 4.35333 66.029 4.15333 66.0423 4.06H65.9623L59.3423 15H55.7023V0.719999ZM81.1872 0.719999V3.22H75.1872V15H72.1672V0.719999H81.1872ZM90.7119 15L89.6719 11.6H84.4719L83.4319 15H80.1719L85.2119 0.66H88.9119L93.9719 15H90.7119ZM88.9519 9.06L87.9119 5.74C87.8452 5.51333 87.7585 5.22667 87.6519 4.88C87.5452 4.53333 87.4385 4.18 87.3319 3.82C87.2252 3.46 87.1385 3.14667 87.0719 2.88C87.0052 3.14667 86.9119 3.48 86.7919 3.88C86.6852 4.26667 86.5785 4.64 86.4719 5C86.3785 5.34667 86.3052 5.59333 86.2519 5.74L85.2319 9.06H88.9519ZM101.503 15V0.719999H110.523V3.22H104.523V6.2H105.723C107.07 6.2 108.17 6.38667 109.023 6.76C109.89 7.13333 110.53 7.64667 110.943 8.3C111.356 8.95333 111.563 9.7 111.563 10.54C111.563 11.9533 111.09 13.0533 110.143 13.84C109.21 14.6133 107.716 15 105.663 15H101.503ZM104.523 12.52H105.543C106.463 12.52 107.183 12.3733 107.703 12.08C108.236 11.7867 108.503 11.2733 108.503 10.54C108.503 9.78 108.216 9.28 107.643 9.04C107.07 8.8 106.29 8.68 105.303 8.68H104.523V12.52ZM118.497 3.86C119.964 3.86 121.084 4.18 121.857 4.82C122.644 5.44667 123.037 6.41333 123.037 7.72V15H120.957L120.377 13.52H120.297C119.83 14.1067 119.337 14.5333 118.817 14.8C118.297 15.0667 117.584 15.2 116.677 15.2C115.704 15.2 114.897 14.92 114.257 14.36C113.617 13.7867 113.297 12.9133 113.297 11.74C113.297 10.58 113.704 9.72667 114.517 9.18C115.33 8.62 116.55 8.31333 118.177 8.26L120.077 8.2V7.72C120.077 7.14667 119.924 6.72667 119.617 6.46C119.324 6.19333 118.91 6.06 118.377 6.06C117.844 6.06 117.324 6.14 116.817 6.3C116.31 6.44667 115.804 6.63333 115.297 6.86L114.317 4.84C114.904 4.53333 115.55 4.29333 116.257 4.12C116.977 3.94667 117.724 3.86 118.497 3.86ZM120.077 9.94L118.917 9.98C117.957 10.0067 117.29 10.18 116.917 10.5C116.544 10.82 116.357 11.24 116.357 11.76C116.357 12.2133 116.49 12.54 116.757 12.74C117.024 12.9267 117.37 13.02 117.797 13.02C118.437 13.02 118.977 12.8333 119.417 12.46C119.857 12.0733 120.077 11.5333 120.077 10.84V9.94ZM129.067 4.08V8.28H133.227V4.08H136.207V15H133.227V10.5H129.067V15H126.087V4.08H129.067ZM146.49 4.08H149.77L145.45 9.32L150.15 15H146.77L142.31 9.46V15H139.33V4.08H142.31V9.38L146.49 4.08Z" fill="#1F1E25"/>
<path d="M43.9219 21.6602H45.0059V28H43.9219V23.377L40.998 28H39.9141V21.6602H40.998V26.2891L43.9219 21.6602ZM51.9258 28H50.8418V25.293H47.9297V28H46.8398V21.6602H47.9297V24.4082H50.8418V21.6602H51.9258V28ZM58.3828 22.5391H56.2559V28H55.1719V22.5391H53.0859V21.6602H58.3828V22.5391ZM61.5996 28.1172C60.7402 28.1172 60.041 27.8359 59.502 27.2734C58.9629 26.707 58.6934 25.9512 58.6934 25.0059V24.8066C58.6934 24.1777 58.8125 23.6172 59.0508 23.125C59.293 22.6289 59.6289 22.2422 60.0586 21.9648C60.4922 21.6836 60.9609 21.543 61.4648 21.543C62.2891 21.543 62.9297 21.8145 63.3867 22.3574C63.8438 22.9004 64.0723 23.6777 64.0723 24.6895V25.1406H59.7773C59.793 25.7656 59.9746 26.2715 60.3223 26.6582C60.6738 27.041 61.1191 27.2324 61.6582 27.2324C62.041 27.2324 62.3652 27.1543 62.6309 26.998C62.8965 26.8418 63.1289 26.6348 63.3281 26.377L63.9902 26.8926C63.459 27.709 62.6621 28.1172 61.5996 28.1172ZM61.4648 22.4336C61.0273 22.4336 60.6602 22.5938 60.3633 22.9141C60.0664 23.2305 59.8828 23.6758 59.8125 24.25H62.9883V24.168C62.957 23.6172 62.8086 23.1914 62.543 22.8906C62.2773 22.5859 61.918 22.4336 61.4648 22.4336ZM70.6875 24.9004C70.6875 25.8652 70.4668 26.6426 70.0254 27.2324C69.584 27.8223 68.9863 28.1172 68.2324 28.1172C67.4629 28.1172 66.8574 27.873 66.416 27.3848V30.4375H65.332V21.6602H66.3223L66.375 22.3633C66.8164 21.8164 67.4297 21.543 68.2148 21.543C68.9766 21.543 69.5781 21.8301 70.0195 22.4043C70.4648 22.9785 70.6875 23.7773 70.6875 24.8008V24.9004ZM69.6035 24.7773C69.6035 24.0625 69.4512 23.498 69.1465 23.084C68.8418 22.6699 68.4238 22.4629 67.8926 22.4629C67.2363 22.4629 66.7441 22.7539 66.416 23.3359V26.3652C66.7402 26.9434 67.2363 27.2324 67.9043 27.2324C68.4238 27.2324 68.8359 27.0273 69.1406 26.6172C69.4492 26.2031 69.6035 25.5898 69.6035 24.7773ZM77.25 28H76.166V25.293H73.2539V28H72.1641V21.6602H73.2539V24.4082H76.166V21.6602H77.25V28ZM81.627 28.1172C80.7676 28.1172 80.0684 27.8359 79.5293 27.2734C78.9902 26.707 78.7207 25.9512 78.7207 25.0059V24.8066C78.7207 24.1777 78.8398 23.6172 79.0781 23.125C79.3203 22.6289 79.6562 22.2422 80.0859 21.9648C80.5195 21.6836 80.9883 21.543 81.4922 21.543C82.3164 21.543 82.957 21.8145 83.4141 22.3574C83.8711 22.9004 84.0996 23.6777 84.0996 24.6895V25.1406H79.8047C79.8203 25.7656 80.002 26.2715 80.3496 26.6582C80.7012 27.041 81.1465 27.2324 81.6855 27.2324C82.0684 27.2324 82.3926 27.1543 82.6582 26.998C82.9238 26.8418 83.1562 26.6348 83.3555 26.377L84.0176 26.8926C83.4863 27.709 82.6895 28.1172 81.627 28.1172ZM81.4922 22.4336C81.0547 22.4336 80.6875 22.5938 80.3906 22.9141C80.0938 23.2305 79.9102 23.6758 79.8398 24.25H83.0156V24.168C82.9844 23.6172 82.8359 23.1914 82.5703 22.8906C82.3047 22.5859 81.9453 22.4336 81.4922 22.4336ZM90 22.5391H87.873V28H86.7891V22.5391H84.7031V21.6602H90V22.5391ZM93.3105 24.8184H90.4512V23.9336H93.3105V24.8184ZM97.1543 22.0234C97.9512 22.0234 98.5879 22.291 99.0645 22.8262C99.5449 23.3574 99.7852 24.0586 99.7852 24.9297V25.0293C99.7852 25.627 99.6699 26.1621 99.4395 26.6348C99.209 27.1035 98.877 27.4688 98.4434 27.7305C98.0137 27.9883 97.5176 28.1172 96.9551 28.1172C96.1035 28.1172 95.418 27.834 94.8984 27.2676C94.3789 26.6973 94.1191 25.9336 94.1191 24.9766V24.4492C94.1191 23.1172 94.3652 22.0586 94.8574 21.2734C95.3535 20.4883 96.084 20.0098 97.0488 19.8379C97.5957 19.7402 97.9648 19.6211 98.1562 19.4805C98.3477 19.3398 98.4434 19.1465 98.4434 18.9004H99.334C99.334 19.3887 99.2227 19.7695 99 20.043C98.7812 20.3164 98.4297 20.5098 97.9453 20.623L97.1367 20.8047C96.4922 20.957 96.0078 21.2148 95.6836 21.5781C95.3633 21.9375 95.1543 22.418 95.0566 23.0195C95.6309 22.3555 96.3301 22.0234 97.1543 22.0234ZM96.9434 22.9141C96.4121 22.9141 95.9902 23.0938 95.6777 23.4531C95.3652 23.8086 95.209 24.3027 95.209 24.9355V25.0293C95.209 25.709 95.3652 26.248 95.6777 26.6465C95.9941 27.041 96.4199 27.2383 96.9551 27.2383C97.4941 27.2383 97.9199 27.0391 98.2324 26.6406C98.5449 26.2422 98.7012 25.6602 98.7012 24.8945C98.7012 24.2969 98.543 23.8184 98.2266 23.459C97.9141 23.0957 97.4863 22.9141 96.9434 22.9141ZM104.918 28C104.855 27.875 104.805 27.6523 104.766 27.332C104.262 27.8555 103.66 28.1172 102.961 28.1172C102.336 28.1172 101.822 27.9414 101.42 27.5898C101.021 27.2344 100.822 26.7852 100.822 26.2422C100.822 25.582 101.072 25.0703 101.572 24.707C102.076 24.3398 102.783 24.1562 103.693 24.1562H104.748V23.6582C104.748 23.2793 104.635 22.9785 104.408 22.7559C104.182 22.5293 103.848 22.416 103.406 22.416C103.02 22.416 102.695 22.5137 102.434 22.709C102.172 22.9043 102.041 23.1406 102.041 23.418H100.951C100.951 23.1016 101.062 22.7969 101.285 22.5039C101.512 22.207 101.816 21.9727 102.199 21.8008C102.586 21.6289 103.01 21.543 103.471 21.543C104.201 21.543 104.773 21.7266 105.188 22.0938C105.602 22.457 105.816 22.959 105.832 23.5996V26.5176C105.832 27.0996 105.906 27.5625 106.055 27.9062V28H104.918ZM103.119 27.1738C103.459 27.1738 103.781 27.0859 104.086 26.9102C104.391 26.7344 104.611 26.5059 104.748 26.2246V24.9238H103.898C102.57 24.9238 101.906 25.3125 101.906 26.0898C101.906 26.4297 102.02 26.6953 102.246 26.8867C102.473 27.0781 102.764 27.1738 103.119 27.1738ZM112.711 28H111.627V25.293H108.715V28H107.625V21.6602H108.715V24.4082H111.627V21.6602H112.711V28ZM116.432 25.2988H115.641V28H114.551V21.6602H115.641V24.3438H116.35L118.482 21.6602H119.795L117.287 24.707L120.006 28H118.629L116.432 25.2988Z" fill="#1F1E25"/>
<path d="M17.875 1H14.75L1 24.0488H5.0625L6.9375 20.7561L17.875 1Z" fill="#2C36F2"/>
<path d="M2.875 28H29.125L17.875 7.58537L16 10.878L21.625 20.7561L23.5 24.0488H5.0625H1L2.875 28Z" fill="#2C36F2"/>
<path d="M23.5 24.0488L21.625 20.7561H10.375H6.9375L5.0625 24.0488H23.5Z" fill="#2C36F2"/>
<path d="M29.125 28L31 24.0488L17.875 1L6.9375 20.7561H10.375L16 10.878L17.875 7.58537L29.125 28Z" fill="#2C36F2"/>
<path d="M16 10.878L10.375 20.7561H21.625L16 10.878Z" fill="#2C36F2"/>
<path d="M29.125 28H2.875L1 24.0488M29.125 28L31 24.0488L17.875 1M29.125 28L17.875 7.58537L16 10.878M17.875 1H14.75L1 24.0488M17.875 1L6.9375 20.7561M1 24.0488H5.0625M16 10.878L10.375 20.7561M16 10.878L21.625 20.7561M10.375 20.7561H21.625M10.375 20.7561H6.9375M21.625 20.7561L23.5 24.0488H5.0625M6.9375 20.7561L5.0625 24.0488" stroke="#F6F7FF"/>
</symbol><symbol id="logo-big" viewBox="0 0 150 27">
<path d="M51.1 26H48.08V14.24H44.58C44.5 14.8533 44.4133 15.52 44.32 16.24C44.24 16.96 44.1467 17.6933 44.04 18.44C43.9467 19.1733 43.8467 19.8733 43.74 20.54C43.6333 21.1933 43.5267 21.7733 43.42 22.28C43.2467 23.1067 43.0133 23.8133 42.72 24.4C42.44 24.9867 42.0467 25.4333 41.54 25.74C41.0467 26.0467 40.4 26.2 39.6 26.2C39.08 26.2 38.6 26.1267 38.16 25.98V23.5C38.3333 23.5533 38.5 23.6 38.66 23.64C38.8333 23.68 39.02 23.7 39.22 23.7C39.6067 23.7 39.9 23.5 40.1 23.1C40.3133 22.6867 40.5267 21.92 40.74 20.8C40.82 20.3733 40.9333 19.7067 41.08 18.8C41.2267 17.8933 41.3867 16.8333 41.56 15.62C41.7467 14.3933 41.92 13.0933 42.08 11.72H51.1V26ZM54.7023 11.72H57.4223V18.62C57.4223 18.9533 57.4157 19.3267 57.4023 19.74C57.389 20.1533 57.3757 20.56 57.3623 20.96C57.349 21.3467 57.3357 21.6867 57.3223 21.98C57.309 22.26 57.2957 22.4533 57.2823 22.56H57.3423L63.9423 11.72H67.5623V26H64.8623V19.14C64.8623 18.78 64.869 18.3867 64.8823 17.96C64.8957 17.52 64.909 17.1 64.9223 16.7C64.949 16.3 64.969 15.9533 64.9823 15.66C65.009 15.3533 65.029 15.1533 65.0423 15.06H64.9623L58.3423 26H54.7023V11.72ZM80.1872 11.72V14.22H74.1872V26H71.1672V11.72H80.1872ZM89.7119 26L88.6719 22.6H83.4719L82.4319 26H79.1719L84.2119 11.66H87.9119L92.9719 26H89.7119ZM87.9519 20.06L86.9119 16.74C86.8452 16.5133 86.7585 16.2267 86.6519 15.88C86.5452 15.5333 86.4385 15.18 86.3319 14.82C86.2252 14.46 86.1385 14.1467 86.0719 13.88C86.0052 14.1467 85.9119 14.48 85.7919 14.88C85.6852 15.2667 85.5785 15.64 85.4719 16C85.3785 16.3467 85.3052 16.5933 85.2519 16.74L84.2319 20.06H87.9519ZM100.503 26V11.72H109.523V14.22H103.523V17.2H104.723C106.07 17.2 107.17 17.3867 108.023 17.76C108.89 18.1333 109.53 18.6467 109.943 19.3C110.356 19.9533 110.563 20.7 110.563 21.54C110.563 22.9533 110.09 24.0533 109.143 24.84C108.21 25.6133 106.716 26 104.663 26H100.503ZM103.523 23.52H104.543C105.463 23.52 106.183 23.3733 106.703 23.08C107.236 22.7867 107.503 22.2733 107.503 21.54C107.503 20.78 107.216 20.28 106.643 20.04C106.07 19.8 105.29 19.68 104.303 19.68H103.523V23.52ZM117.497 14.86C118.964 14.86 120.084 15.18 120.857 15.82C121.644 16.4467 122.037 17.4133 122.037 18.72V26H119.957L119.377 24.52H119.297C118.83 25.1067 118.337 25.5333 117.817 25.8C117.297 26.0667 116.584 26.2 115.677 26.2C114.704 26.2 113.897 25.92 113.257 25.36C112.617 24.7867 112.297 23.9133 112.297 22.74C112.297 21.58 112.704 20.7267 113.517 20.18C114.33 19.62 115.55 19.3133 117.177 19.26L119.077 19.2V18.72C119.077 18.1467 118.924 17.7267 118.617 17.46C118.324 17.1933 117.91 17.06 117.377 17.06C116.844 17.06 116.324 17.14 115.817 17.3C115.31 17.4467 114.804 17.6333 114.297 17.86L113.317 15.84C113.904 15.5333 114.55 15.2933 115.257 15.12C115.977 14.9467 116.724 14.86 117.497 14.86ZM119.077 20.94L117.917 20.98C116.957 21.0067 116.29 21.18 115.917 21.5C115.544 21.82 115.357 22.24 115.357 22.76C115.357 23.2133 115.49 23.54 115.757 23.74C116.024 23.9267 116.37 24.02 116.797 24.02C117.437 24.02 117.977 23.8333 118.417 23.46C118.857 23.0733 119.077 22.5333 119.077 21.84V20.94ZM128.067 15.08V19.28H132.227V15.08H135.207V26H132.227V21.5H128.067V26H125.087V15.08H128.067ZM145.49 15.08H148.77L144.45 20.32L149.15 26H145.77L141.31 20.46V26H138.33V15.08H141.31V20.38L145.49 15.08Z" fill="#1F1E25"/>
<path d="M16.75 1H13.8333L1 22.3415H4.79167L6.54167 19.2927L16.75 1Z" fill="#2C36F2"/>
<path d="M2.75 26H27.25L16.75 7.09756L15 10.1463L20.25 19.2927L22 22.3415H4.79167H1L2.75 26Z" fill="#2C36F2"/>
<path d="M22 22.3415L20.25 19.2927H9.75H6.54167L4.79167 22.3415H22Z" fill="#2C36F2"/>
<path d="M27.25 26L29 22.3415L16.75 1L6.54167 19.2927H9.75L15 10.1463L16.75 7.09756L27.25 26Z" fill="#2C36F2"/>
<path d="M15 10.1463L9.75 19.2927H20.25L15 10.1463Z" fill="#2C36F2"/>
<path d="M27.25 26H2.75L1 22.3415M27.25 26L29 22.3415L16.75 1M27.25 26L16.75 7.09756L15 10.1463M16.75 1H13.8333L1 22.3415M16.75 1L6.54167 19.2927M1 22.3415H4.79167M15 10.1463L9.75 19.2927M15 10.1463L20.25 19.2927M9.75 19.2927H20.25M9.75 19.2927H6.54167M20.25 19.2927L22 22.3415H4.79167M6.54167 19.2927L4.79167 22.3415" stroke="#F6F7FF"/>
</symbol><symbol id="logo-medium-popup" viewBox="0 0 151 31">
<path d="M52.1 15H49.08V3.24H45.58C45.5 3.85333 45.4133 4.52 45.32 5.24C45.24 5.96 45.1467 6.69333 45.04 7.44C44.9467 8.17333 44.8467 8.87333 44.74 9.54C44.6333 10.1933 44.5267 10.7733 44.42 11.28C44.2467 12.1067 44.0133 12.8133 43.72 13.4C43.44 13.9867 43.0467 14.4333 42.54 14.74C42.0467 15.0467 41.4 15.2 40.6 15.2C40.08 15.2 39.6 15.1267 39.16 14.98V12.5C39.3333 12.5533 39.5 12.6 39.66 12.64C39.8333 12.68 40.02 12.7 40.22 12.7C40.6067 12.7 40.9 12.5 41.1 12.1C41.3133 11.6867 41.5267 10.92 41.74 9.8C41.82 9.37333 41.9333 8.70667 42.08 7.8C42.2267 6.89333 42.3867 5.83333 42.56 4.62C42.7467 3.39333 42.92 2.09333 43.08 0.719999H52.1V15ZM55.7023 0.719999H58.4223V7.62C58.4223 7.95333 58.4157 8.32667 58.4023 8.74C58.389 9.15333 58.3757 9.56 58.3623 9.96C58.349 10.3467 58.3357 10.6867 58.3223 10.98C58.309 11.26 58.2957 11.4533 58.2823 11.56H58.3423L64.9423 0.719999H68.5623V15H65.8623V8.14C65.8623 7.78 65.869 7.38667 65.8823 6.96C65.8957 6.52 65.909 6.1 65.9223 5.7C65.949 5.3 65.969 4.95333 65.9823 4.66C66.009 4.35333 66.029 4.15333 66.0423 4.06H65.9623L59.3423 15H55.7023V0.719999ZM81.1872 0.719999V3.22H75.1872V15H72.1672V0.719999H81.1872ZM90.7119 15L89.6719 11.6H84.4719L83.4319 15H80.1719L85.2119 0.66H88.9119L93.9719 15H90.7119ZM88.9519 9.06L87.9119 5.74C87.8452 5.51333 87.7585 5.22667 87.6519 4.88C87.5452 4.53333 87.4385 4.18 87.3319 3.82C87.2252 3.46 87.1385 3.14667 87.0719 2.88C87.0052 3.14667 86.9119 3.48 86.7919 3.88C86.6852 4.26667 86.5785 4.64 86.4719 5C86.3785 5.34667 86.3052 5.59333 86.2519 5.74L85.2319 9.06H88.9519ZM101.503 15V0.719999H110.523V3.22H104.523V6.2H105.723C107.07 6.2 108.17 6.38667 109.023 6.76C109.89 7.13333 110.53 7.64667 110.943 8.3C111.356 8.95333 111.563 9.7 111.563 10.54C111.563 11.9533 111.09 13.0533 110.143 13.84C109.21 14.6133 107.716 15 105.663 15H101.503ZM104.523 12.52H105.543C106.463 12.52 107.183 12.3733 107.703 12.08C108.236 11.7867 108.503 11.2733 108.503 10.54C108.503 9.78 108.216 9.28 107.643 9.04C107.07 8.8 106.29 8.68 105.303 8.68H104.523V12.52ZM118.497 3.86C119.964 3.86 121.084 4.18 121.857 4.82C122.644 5.44667 123.037 6.41333 123.037 7.72V15H120.957L120.377 13.52H120.297C119.83 14.1067 119.337 14.5333 118.817 14.8C118.297 15.0667 117.584 15.2 116.677 15.2C115.704 15.2 114.897 14.92 114.257 14.36C113.617 13.7867 113.297 12.9133 113.297 11.74C113.297 10.58 113.704 9.72667 114.517 9.18C115.33 8.62 116.55 8.31333 118.177 8.26L120.077 8.2V7.72C120.077 7.14667 119.924 6.72667 119.617 6.46C119.324 6.19333 118.91 6.06 118.377 6.06C117.844 6.06 117.324 6.14 116.817 6.3C116.31 6.44667 115.804 6.63333 115.297 6.86L114.317 4.84C114.904 4.53333 115.55 4.29333 116.257 4.12C116.977 3.94667 117.724 3.86 118.497 3.86ZM120.077 9.94L118.917 9.98C117.957 10.0067 117.29 10.18 116.917 10.5C116.544 10.82 116.357 11.24 116.357 11.76C116.357 12.2133 116.49 12.54 116.757 12.74C117.024 12.9267 117.37 13.02 117.797 13.02C118.437 13.02 118.977 12.8333 119.417 12.46C119.857 12.0733 120.077 11.5333 120.077 10.84V9.94ZM129.067 4.08V8.28H133.227V4.08H136.207V15H133.227V10.5H129.067V15H126.087V4.08H129.067ZM146.49 4.08H149.77L145.45 9.32L150.15 15H146.77L142.31 9.46V15H139.33V4.08H142.31V9.38L146.49 4.08Z" fill="#1F1E25"/>
<path d="M43.9219 21.6602H45.0059V28H43.9219V23.377L40.998 28H39.9141V21.6602H40.998V26.2891L43.9219 21.6602ZM51.9258 28H50.8418V25.293H47.9297V28H46.8398V21.6602H47.9297V24.4082H50.8418V21.6602H51.9258V28ZM58.3828 22.5391H56.2559V28H55.1719V22.5391H53.0859V21.6602H58.3828V22.5391ZM61.5996 28.1172C60.7402 28.1172 60.041 27.8359 59.502 27.2734C58.9629 26.707 58.6934 25.9512 58.6934 25.0059V24.8066C58.6934 24.1777 58.8125 23.6172 59.0508 23.125C59.293 22.6289 59.6289 22.2422 60.0586 21.9648C60.4922 21.6836 60.9609 21.543 61.4648 21.543C62.2891 21.543 62.9297 21.8145 63.3867 22.3574C63.8438 22.9004 64.0723 23.6777 64.0723 24.6895V25.1406H59.7773C59.793 25.7656 59.9746 26.2715 60.3223 26.6582C60.6738 27.041 61.1191 27.2324 61.6582 27.2324C62.041 27.2324 62.3652 27.1543 62.6309 26.998C62.8965 26.8418 63.1289 26.6348 63.3281 26.377L63.9902 26.8926C63.459 27.709 62.6621 28.1172 61.5996 28.1172ZM61.4648 22.4336C61.0273 22.4336 60.6602 22.5938 60.3633 22.9141C60.0664 23.2305 59.8828 23.6758 59.8125 24.25H62.9883V24.168C62.957 23.6172 62.8086 23.1914 62.543 22.8906C62.2773 22.5859 61.918 22.4336 61.4648 22.4336ZM70.6875 24.9004C70.6875 25.8652 70.4668 26.6426 70.0254 27.2324C69.584 27.8223 68.9863 28.1172 68.2324 28.1172C67.4629 28.1172 66.8574 27.873 66.416 27.3848V30.4375H65.332V21.6602H66.3223L66.375 22.3633C66.8164 21.8164 67.4297 21.543 68.2148 21.543C68.9766 21.543 69.5781 21.8301 70.0195 22.4043C70.4648 22.9785 70.6875 23.7773 70.6875 24.8008V24.9004ZM69.6035 24.7773C69.6035 24.0625 69.4512 23.498 69.1465 23.084C68.8418 22.6699 68.4238 22.4629 67.8926 22.4629C67.2363 22.4629 66.7441 22.7539 66.416 23.3359V26.3652C66.7402 26.9434 67.2363 27.2324 67.9043 27.2324C68.4238 27.2324 68.8359 27.0273 69.1406 26.6172C69.4492 26.2031 69.6035 25.5898 69.6035 24.7773ZM77.25 28H76.166V25.293H73.2539V28H72.1641V21.6602H73.2539V24.4082H76.166V21.6602H77.25V28ZM81.627 28.1172C80.7676 28.1172 80.0684 27.8359 79.5293 27.2734C78.9902 26.707 78.7207 25.9512 78.7207 25.0059V24.8066C78.7207 24.1777 78.8398 23.6172 79.0781 23.125C79.3203 22.6289 79.6562 22.2422 80.0859 21.9648C80.5195 21.6836 80.9883 21.543 81.4922 21.543C82.3164 21.543 82.957 21.8145 83.4141 22.3574C83.8711 22.9004 84.0996 23.6777 84.0996 24.6895V25.1406H79.8047C79.8203 25.7656 80.002 26.2715 80.3496 26.6582C80.7012 27.041 81.1465 27.2324 81.6855 27.2324C82.0684 27.2324 82.3926 27.1543 82.6582 26.998C82.9238 26.8418 83.1562 26.6348 83.3555 26.377L84.0176 26.8926C83.4863 27.709 82.6895 28.1172 81.627 28.1172ZM81.4922 22.4336C81.0547 22.4336 80.6875 22.5938 80.3906 22.9141C80.0938 23.2305 79.9102 23.6758 79.8398 24.25H83.0156V24.168C82.9844 23.6172 82.8359 23.1914 82.5703 22.8906C82.3047 22.5859 81.9453 22.4336 81.4922 22.4336ZM90 22.5391H87.873V28H86.7891V22.5391H84.7031V21.6602H90V22.5391ZM93.3105 24.8184H90.4512V23.9336H93.3105V24.8184ZM97.1543 22.0234C97.9512 22.0234 98.5879 22.291 99.0645 22.8262C99.5449 23.3574 99.7852 24.0586 99.7852 24.9297V25.0293C99.7852 25.627 99.6699 26.1621 99.4395 26.6348C99.209 27.1035 98.877 27.4688 98.4434 27.7305C98.0137 27.9883 97.5176 28.1172 96.9551 28.1172C96.1035 28.1172 95.418 27.834 94.8984 27.2676C94.3789 26.6973 94.1191 25.9336 94.1191 24.9766V24.4492C94.1191 23.1172 94.3652 22.0586 94.8574 21.2734C95.3535 20.4883 96.084 20.0098 97.0488 19.8379C97.5957 19.7402 97.9648 19.6211 98.1562 19.4805C98.3477 19.3398 98.4434 19.1465 98.4434 18.9004H99.334C99.334 19.3887 99.2227 19.7695 99 20.043C98.7812 20.3164 98.4297 20.5098 97.9453 20.623L97.1367 20.8047C96.4922 20.957 96.0078 21.2148 95.6836 21.5781C95.3633 21.9375 95.1543 22.418 95.0566 23.0195C95.6309 22.3555 96.3301 22.0234 97.1543 22.0234ZM96.9434 22.9141C96.4121 22.9141 95.9902 23.0938 95.6777 23.4531C95.3652 23.8086 95.209 24.3027 95.209 24.9355V25.0293C95.209 25.709 95.3652 26.248 95.6777 26.6465C95.9941 27.041 96.4199 27.2383 96.9551 27.2383C97.4941 27.2383 97.9199 27.0391 98.2324 26.6406C98.5449 26.2422 98.7012 25.6602 98.7012 24.8945C98.7012 24.2969 98.543 23.8184 98.2266 23.459C97.9141 23.0957 97.4863 22.9141 96.9434 22.9141ZM104.918 28C104.855 27.875 104.805 27.6523 104.766 27.332C104.262 27.8555 103.66 28.1172 102.961 28.1172C102.336 28.1172 101.822 27.9414 101.42 27.5898C101.021 27.2344 100.822 26.7852 100.822 26.2422C100.822 25.582 101.072 25.0703 101.572 24.707C102.076 24.3398 102.783 24.1562 103.693 24.1562H104.748V23.6582C104.748 23.2793 104.635 22.9785 104.408 22.7559C104.182 22.5293 103.848 22.416 103.406 22.416C103.02 22.416 102.695 22.5137 102.434 22.709C102.172 22.9043 102.041 23.1406 102.041 23.418H100.951C100.951 23.1016 101.062 22.7969 101.285 22.5039C101.512 22.207 101.816 21.9727 102.199 21.8008C102.586 21.6289 103.01 21.543 103.471 21.543C104.201 21.543 104.773 21.7266 105.188 22.0938C105.602 22.457 105.816 22.959 105.832 23.5996V26.5176C105.832 27.0996 105.906 27.5625 106.055 27.9062V28H104.918ZM103.119 27.1738C103.459 27.1738 103.781 27.0859 104.086 26.9102C104.391 26.7344 104.611 26.5059 104.748 26.2246V24.9238H103.898C102.57 24.9238 101.906 25.3125 101.906 26.0898C101.906 26.4297 102.02 26.6953 102.246 26.8867C102.473 27.0781 102.764 27.1738 103.119 27.1738ZM112.711 28H111.627V25.293H108.715V28H107.625V21.6602H108.715V24.4082H111.627V21.6602H112.711V28ZM116.432 25.2988H115.641V28H114.551V21.6602H115.641V24.3438H116.35L118.482 21.6602H119.795L117.287 24.707L120.006 28H118.629L116.432 25.2988Z" fill="#1F1E25"/>
<path d="M17.875 1H14.75L1 24.0488H5.0625L6.9375 20.7561L17.875 1Z" fill="#2C36F2"/>
<path d="M2.875 28H29.125L17.875 7.58537L16 10.878L21.625 20.7561L23.5 24.0488H5.0625H1L2.875 28Z" fill="#2C36F2"/>
<path d="M23.5 24.0488L21.625 20.7561H10.375H6.9375L5.0625 24.0488H23.5Z" fill="#2C36F2"/>
<path d="M29.125 28L31 24.0488L17.875 1L6.9375 20.7561H10.375L16 10.878L17.875 7.58537L29.125 28Z" fill="#2C36F2"/>
<path d="M16 10.878L10.375 20.7561H21.625L16 10.878Z" fill="#2C36F2"/>
<path d="M29.125 28H2.875L1 24.0488M29.125 28L31 24.0488L17.875 1M29.125 28L17.875 7.58537L16 10.878M17.875 1H14.75L1 24.0488M17.875 1L6.9375 20.7561M1 24.0488H5.0625M16 10.878L10.375 20.7561M16 10.878L21.625 20.7561M10.375 20.7561H21.625M10.375 20.7561H6.9375M21.625 20.7561L23.5 24.0488H5.0625M6.9375 20.7561L5.0625 24.0488" stroke="#F6F7FF"/>
</symbol><symbol id="logo-medium" viewBox="0 0 134 24">
<path d="M44.79 23H42.072V12.416H38.922C38.85 12.968 38.772 13.568 38.688 14.216C38.616 14.864 38.532 15.524 38.436 16.196C38.352 16.856 38.262 17.486 38.166 18.086C38.07 18.674 37.974 19.196 37.878 19.652C37.722 20.396 37.512 21.032 37.248 21.56C36.996 22.088 36.642 22.49 36.186 22.766C35.742 23.042 35.16 23.18 34.44 23.18C33.972 23.18 33.54 23.114 33.144 22.982V20.75C33.3 20.798 33.45 20.84 33.594 20.876C33.75 20.912 33.918 20.93 34.098 20.93C34.446 20.93 34.71 20.75 34.89 20.39C35.082 20.018 35.274 19.328 35.466 18.32C35.538 17.936 35.64 17.336 35.772 16.52C35.904 15.704 36.048 14.75 36.204 13.658C36.372 12.554 36.528 11.384 36.672 10.148H44.79V23ZM48.0321 10.148H50.4801V16.358C50.4801 16.658 50.4741 16.994 50.4621 17.366C50.4501 17.738 50.4381 18.104 50.4261 18.464C50.4141 18.812 50.4021 19.118 50.3901 19.382C50.3781 19.634 50.3661 19.808 50.3541 19.904H50.4081L56.3481 10.148H59.6061V23H57.1761V16.826C57.1761 16.502 57.1821 16.148 57.1941 15.764C57.2061 15.368 57.2181 14.99 57.2301 14.63C57.2541 14.27 57.2721 13.958 57.2841 13.694C57.3081 13.418 57.3261 13.238 57.3381 13.154H57.2661L51.3081 23H48.0321V10.148ZM70.9685 10.148V12.398H65.5685V23H62.8505V10.148H70.9685ZM79.5407 23L78.6047 19.94H73.9247L72.9887 23H70.0547L74.5907 10.094H77.9207L82.4747 23H79.5407ZM77.9567 17.654L77.0207 14.666C76.9607 14.462 76.8827 14.204 76.7867 13.892C76.6907 13.58 76.5947 13.262 76.4987 12.938C76.4027 12.614 76.3247 12.332 76.2647 12.092C76.2047 12.332 76.1207 12.632 76.0127 12.992C75.9167 13.34 75.8207 13.676 75.7247 14C75.6407 14.312 75.5747 14.534 75.5267 14.666L74.6087 17.654H77.9567ZM89.2528 23V10.148H97.3708V12.398H91.9708V15.08H93.0508C94.2628 15.08 95.2528 15.248 96.0208 15.584C96.8008 15.92 97.3768 16.382 97.7488 16.97C98.1208 17.558 98.3068 18.23 98.3068 18.986C98.3068 20.258 97.8808 21.248 97.0288 21.956C96.1888 22.652 94.8448 23 92.9968 23H89.2528ZM91.9708 20.768H92.8888C93.7168 20.768 94.3648 20.636 94.8328 20.372C95.3128 20.108 95.5528 19.646 95.5528 18.986C95.5528 18.302 95.2948 17.852 94.7788 17.636C94.2628 17.42 93.5608 17.312 92.6728 17.312H91.9708V20.768ZM104.547 12.974C105.867 12.974 106.875 13.262 107.571 13.838C108.279 14.402 108.633 15.272 108.633 16.448V23H106.761L106.239 21.668H106.167C105.747 22.196 105.303 22.58 104.835 22.82C104.367 23.06 103.725 23.18 102.909 23.18C102.033 23.18 101.307 22.928 100.731 22.424C100.155 21.908 99.8673 21.122 99.8673 20.066C99.8673 19.022 100.233 18.254 100.965 17.762C101.697 17.258 102.795 16.982 104.259 16.934L105.969 16.88V16.448C105.969 15.932 105.831 15.554 105.555 15.314C105.291 15.074 104.919 14.954 104.439 14.954C103.959 14.954 103.491 15.026 103.035 15.17C102.579 15.302 102.123 15.47 101.667 15.674L100.785 13.856C101.313 13.58 101.895 13.364 102.531 13.208C103.179 13.052 103.851 12.974 104.547 12.974ZM105.969 18.446L104.925 18.482C104.061 18.506 103.461 18.662 103.125 18.95C102.789 19.238 102.621 19.616 102.621 20.084C102.621 20.492 102.741 20.786 102.981 20.966C103.221 21.134 103.533 21.218 103.917 21.218C104.493 21.218 104.979 21.05 105.375 20.714C105.771 20.366 105.969 19.88 105.969 19.256V18.446ZM114.061 13.172V16.952H117.805V13.172H120.487V23H117.805V18.95H114.061V23H111.379V13.172H114.061ZM129.741 13.172H132.693L128.805 17.888L133.035 23H129.993L125.979 18.014V23H123.297V13.172H125.979V17.942L129.741 13.172Z" fill="#1F1E25"/>
<path d="M14.5 1H12L1 19.7805H4.25L5.75 17.0976L14.5 1Z" fill="#2C36F2"/>
<path d="M2.5 23H23.5L14.5 6.36585L13 9.04878L17.5 17.0976L19 19.7805H4.25H1L2.5 23Z" fill="#2C36F2"/>
<path d="M19 19.7805L17.5 17.0976H8.5H5.75L4.25 19.7805H19Z" fill="#2C36F2"/>
<path d="M23.5 23L25 19.7805L14.5 1L5.75 17.0976H8.5L13 9.04878L14.5 6.36585L23.5 23Z" fill="#2C36F2"/>
<path d="M13 9.04878L8.5 17.0976H17.5L13 9.04878Z" fill="#2C36F2"/>
<path d="M23.5 23H2.5L1 19.7805M23.5 23L25 19.7805L14.5 1M23.5 23L14.5 6.36585L13 9.04878M14.5 1H12L1 19.7805M14.5 1L5.75 17.0976M1 19.7805H4.25M13 9.04878L8.5 17.0976M13 9.04878L17.5 17.0976M8.5 17.0976H17.5M8.5 17.0976H5.75M17.5 17.0976L19 19.7805H4.25M5.75 17.0976L4.25 19.7805" stroke="#F6F7FF"/>
</symbol><symbol id="logo-min-popup" viewBox="0 0 151 31">
<path d="M52.1 15H49.08V3.24H45.58C45.5 3.85333 45.4133 4.52 45.32 5.24C45.24 5.96 45.1467 6.69333 45.04 7.44C44.9467 8.17333 44.8467 8.87333 44.74 9.54C44.6333 10.1933 44.5267 10.7733 44.42 11.28C44.2467 12.1067 44.0133 12.8133 43.72 13.4C43.44 13.9867 43.0467 14.4333 42.54 14.74C42.0467 15.0467 41.4 15.2 40.6 15.2C40.08 15.2 39.6 15.1267 39.16 14.98V12.5C39.3333 12.5533 39.5 12.6 39.66 12.64C39.8333 12.68 40.02 12.7 40.22 12.7C40.6067 12.7 40.9 12.5 41.1 12.1C41.3133 11.6867 41.5267 10.92 41.74 9.8C41.82 9.37333 41.9333 8.70667 42.08 7.8C42.2267 6.89333 42.3867 5.83333 42.56 4.62C42.7467 3.39333 42.92 2.09333 43.08 0.719999H52.1V15ZM55.7023 0.719999H58.4223V7.62C58.4223 7.95333 58.4157 8.32667 58.4023 8.74C58.389 9.15333 58.3757 9.56 58.3623 9.96C58.349 10.3467 58.3357 10.6867 58.3223 10.98C58.309 11.26 58.2957 11.4533 58.2823 11.56H58.3423L64.9423 0.719999H68.5623V15H65.8623V8.14C65.8623 7.78 65.869 7.38667 65.8823 6.96C65.8957 6.52 65.909 6.1 65.9223 5.7C65.949 5.3 65.969 4.95333 65.9823 4.66C66.009 4.35333 66.029 4.15333 66.0423 4.06H65.9623L59.3423 15H55.7023V0.719999ZM81.1872 0.719999V3.22H75.1872V15H72.1672V0.719999H81.1872ZM90.7119 15L89.6719 11.6H84.4719L83.4319 15H80.1719L85.2119 0.66H88.9119L93.9719 15H90.7119ZM88.9519 9.06L87.9119 5.74C87.8452 5.51333 87.7585 5.22667 87.6519 4.88C87.5452 4.53333 87.4385 4.18 87.3319 3.82C87.2252 3.46 87.1385 3.14667 87.0719 2.88C87.0052 3.14667 86.9119 3.48 86.7919 3.88C86.6852 4.26667 86.5785 4.64 86.4719 5C86.3785 5.34667 86.3052 5.59333 86.2519 5.74L85.2319 9.06H88.9519ZM101.503 15V0.719999H110.523V3.22H104.523V6.2H105.723C107.07 6.2 108.17 6.38667 109.023 6.76C109.89 7.13333 110.53 7.64667 110.943 8.3C111.356 8.95333 111.563 9.7 111.563 10.54C111.563 11.9533 111.09 13.0533 110.143 13.84C109.21 14.6133 107.716 15 105.663 15H101.503ZM104.523 12.52H105.543C106.463 12.52 107.183 12.3733 107.703 12.08C108.236 11.7867 108.503 11.2733 108.503 10.54C108.503 9.78 108.216 9.28 107.643 9.04C107.07 8.8 106.29 8.68 105.303 8.68H104.523V12.52ZM118.497 3.86C119.964 3.86 121.084 4.18 121.857 4.82C122.644 5.44667 123.037 6.41333 123.037 7.72V15H120.957L120.377 13.52H120.297C119.83 14.1067 119.337 14.5333 118.817 14.8C118.297 15.0667 117.584 15.2 116.677 15.2C115.704 15.2 114.897 14.92 114.257 14.36C113.617 13.7867 113.297 12.9133 113.297 11.74C113.297 10.58 113.704 9.72667 114.517 9.18C115.33 8.62 116.55 8.31333 118.177 8.26L120.077 8.2V7.72C120.077 7.14667 119.924 6.72667 119.617 6.46C119.324 6.19333 118.91 6.06 118.377 6.06C117.844 6.06 117.324 6.14 116.817 6.3C116.31 6.44667 115.804 6.63333 115.297 6.86L114.317 4.84C114.904 4.53333 115.55 4.29333 116.257 4.12C116.977 3.94667 117.724 3.86 118.497 3.86ZM120.077 9.94L118.917 9.98C117.957 10.0067 117.29 10.18 116.917 10.5C116.544 10.82 116.357 11.24 116.357 11.76C116.357 12.2133 116.49 12.54 116.757 12.74C117.024 12.9267 117.37 13.02 117.797 13.02C118.437 13.02 118.977 12.8333 119.417 12.46C119.857 12.0733 120.077 11.5333 120.077 10.84V9.94ZM129.067 4.08V8.28H133.227V4.08H136.207V15H133.227V10.5H129.067V15H126.087V4.08H129.067ZM146.49 4.08H149.77L145.45 9.32L150.15 15H146.77L142.31 9.46V15H139.33V4.08H142.31V9.38L146.49 4.08Z" fill="#1F1E25"/>
<path d="M43.9219 21.6602H45.0059V28H43.9219V23.377L40.998 28H39.9141V21.6602H40.998V26.2891L43.9219 21.6602ZM51.9258 28H50.8418V25.293H47.9297V28H46.8398V21.6602H47.9297V24.4082H50.8418V21.6602H51.9258V28ZM58.3828 22.5391H56.2559V28H55.1719V22.5391H53.0859V21.6602H58.3828V22.5391ZM61.5996 28.1172C60.7402 28.1172 60.041 27.8359 59.502 27.2734C58.9629 26.707 58.6934 25.9512 58.6934 25.0059V24.8066C58.6934 24.1777 58.8125 23.6172 59.0508 23.125C59.293 22.6289 59.6289 22.2422 60.0586 21.9648C60.4922 21.6836 60.9609 21.543 61.4648 21.543C62.2891 21.543 62.9297 21.8145 63.3867 22.3574C63.8438 22.9004 64.0723 23.6777 64.0723 24.6895V25.1406H59.7773C59.793 25.7656 59.9746 26.2715 60.3223 26.6582C60.6738 27.041 61.1191 27.2324 61.6582 27.2324C62.041 27.2324 62.3652 27.1543 62.6309 26.998C62.8965 26.8418 63.1289 26.6348 63.3281 26.377L63.9902 26.8926C63.459 27.709 62.6621 28.1172 61.5996 28.1172ZM61.4648 22.4336C61.0273 22.4336 60.6602 22.5938 60.3633 22.9141C60.0664 23.2305 59.8828 23.6758 59.8125 24.25H62.9883V24.168C62.957 23.6172 62.8086 23.1914 62.543 22.8906C62.2773 22.5859 61.918 22.4336 61.4648 22.4336ZM70.6875 24.9004C70.6875 25.8652 70.4668 26.6426 70.0254 27.2324C69.584 27.8223 68.9863 28.1172 68.2324 28.1172C67.4629 28.1172 66.8574 27.873 66.416 27.3848V30.4375H65.332V21.6602H66.3223L66.375 22.3633C66.8164 21.8164 67.4297 21.543 68.2148 21.543C68.9766 21.543 69.5781 21.8301 70.0195 22.4043C70.4648 22.9785 70.6875 23.7773 70.6875 24.8008V24.9004ZM69.6035 24.7773C69.6035 24.0625 69.4512 23.498 69.1465 23.084C68.8418 22.6699 68.4238 22.4629 67.8926 22.4629C67.2363 22.4629 66.7441 22.7539 66.416 23.3359V26.3652C66.7402 26.9434 67.2363 27.2324 67.9043 27.2324C68.4238 27.2324 68.8359 27.0273 69.1406 26.6172C69.4492 26.2031 69.6035 25.5898 69.6035 24.7773ZM77.25 28H76.166V25.293H73.2539V28H72.1641V21.6602H73.2539V24.4082H76.166V21.6602H77.25V28ZM81.627 28.1172C80.7676 28.1172 80.0684 27.8359 79.5293 27.2734C78.9902 26.707 78.7207 25.9512 78.7207 25.0059V24.8066C78.7207 24.1777 78.8398 23.6172 79.0781 23.125C79.3203 22.6289 79.6562 22.2422 80.0859 21.9648C80.5195 21.6836 80.9883 21.543 81.4922 21.543C82.3164 21.543 82.957 21.8145 83.4141 22.3574C83.8711 22.9004 84.0996 23.6777 84.0996 24.6895V25.1406H79.8047C79.8203 25.7656 80.002 26.2715 80.3496 26.6582C80.7012 27.041 81.1465 27.2324 81.6855 27.2324C82.0684 27.2324 82.3926 27.1543 82.6582 26.998C82.9238 26.8418 83.1562 26.6348 83.3555 26.377L84.0176 26.8926C83.4863 27.709 82.6895 28.1172 81.627 28.1172ZM81.4922 22.4336C81.0547 22.4336 80.6875 22.5938 80.3906 22.9141C80.0938 23.2305 79.9102 23.6758 79.8398 24.25H83.0156V24.168C82.9844 23.6172 82.8359 23.1914 82.5703 22.8906C82.3047 22.5859 81.9453 22.4336 81.4922 22.4336ZM90 22.5391H87.873V28H86.7891V22.5391H84.7031V21.6602H90V22.5391ZM93.3105 24.8184H90.4512V23.9336H93.3105V24.8184ZM97.1543 22.0234C97.9512 22.0234 98.5879 22.291 99.0645 22.8262C99.5449 23.3574 99.7852 24.0586 99.7852 24.9297V25.0293C99.7852 25.627 99.6699 26.1621 99.4395 26.6348C99.209 27.1035 98.877 27.4688 98.4434 27.7305C98.0137 27.9883 97.5176 28.1172 96.9551 28.1172C96.1035 28.1172 95.418 27.834 94.8984 27.2676C94.3789 26.6973 94.1191 25.9336 94.1191 24.9766V24.4492C94.1191 23.1172 94.3652 22.0586 94.8574 21.2734C95.3535 20.4883 96.084 20.0098 97.0488 19.8379C97.5957 19.7402 97.9648 19.6211 98.1562 19.4805C98.3477 19.3398 98.4434 19.1465 98.4434 18.9004H99.334C99.334 19.3887 99.2227 19.7695 99 20.043C98.7812 20.3164 98.4297 20.5098 97.9453 20.623L97.1367 20.8047C96.4922 20.957 96.0078 21.2148 95.6836 21.5781C95.3633 21.9375 95.1543 22.418 95.0566 23.0195C95.6309 22.3555 96.3301 22.0234 97.1543 22.0234ZM96.9434 22.9141C96.4121 22.9141 95.9902 23.0938 95.6777 23.4531C95.3652 23.8086 95.209 24.3027 95.209 24.9355V25.0293C95.209 25.709 95.3652 26.248 95.6777 26.6465C95.9941 27.041 96.4199 27.2383 96.9551 27.2383C97.4941 27.2383 97.9199 27.0391 98.2324 26.6406C98.5449 26.2422 98.7012 25.6602 98.7012 24.8945C98.7012 24.2969 98.543 23.8184 98.2266 23.459C97.9141 23.0957 97.4863 22.9141 96.9434 22.9141ZM104.918 28C104.855 27.875 104.805 27.6523 104.766 27.332C104.262 27.8555 103.66 28.1172 102.961 28.1172C102.336 28.1172 101.822 27.9414 101.42 27.5898C101.021 27.2344 100.822 26.7852 100.822 26.2422C100.822 25.582 101.072 25.0703 101.572 24.707C102.076 24.3398 102.783 24.1562 103.693 24.1562H104.748V23.6582C104.748 23.2793 104.635 22.9785 104.408 22.7559C104.182 22.5293 103.848 22.416 103.406 22.416C103.02 22.416 102.695 22.5137 102.434 22.709C102.172 22.9043 102.041 23.1406 102.041 23.418H100.951C100.951 23.1016 101.062 22.7969 101.285 22.5039C101.512 22.207 101.816 21.9727 102.199 21.8008C102.586 21.6289 103.01 21.543 103.471 21.543C104.201 21.543 104.773 21.7266 105.188 22.0938C105.602 22.457 105.816 22.959 105.832 23.5996V26.5176C105.832 27.0996 105.906 27.5625 106.055 27.9062V28H104.918ZM103.119 27.1738C103.459 27.1738 103.781 27.0859 104.086 26.9102C104.391 26.7344 104.611 26.5059 104.748 26.2246V24.9238H103.898C102.57 24.9238 101.906 25.3125 101.906 26.0898C101.906 26.4297 102.02 26.6953 102.246 26.8867C102.473 27.0781 102.764 27.1738 103.119 27.1738ZM112.711 28H111.627V25.293H108.715V28H107.625V21.6602H108.715V24.4082H111.627V21.6602H112.711V28ZM116.432 25.2988H115.641V28H114.551V21.6602H115.641V24.3438H116.35L118.482 21.6602H119.795L117.287 24.707L120.006 28H118.629L116.432 25.2988Z" fill="#1F1E25"/>
<path d="M17.875 1H14.75L1 24.0488H5.0625L6.9375 20.7561L17.875 1Z" fill="#2C36F2"/>
<path d="M2.875 28H29.125L17.875 7.58537L16 10.878L21.625 20.7561L23.5 24.0488H5.0625H1L2.875 28Z" fill="#2C36F2"/>
<path d="M23.5 24.0488L21.625 20.7561H10.375H6.9375L5.0625 24.0488H23.5Z" fill="#2C36F2"/>
<path d="M29.125 28L31 24.0488L17.875 1L6.9375 20.7561H10.375L16 10.878L17.875 7.58537L29.125 28Z" fill="#2C36F2"/>
<path d="M16 10.878L10.375 20.7561H21.625L16 10.878Z" fill="#2C36F2"/>
<path d="M29.125 28H2.875L1 24.0488M29.125 28L31 24.0488L17.875 1M29.125 28L17.875 7.58537L16 10.878M17.875 1H14.75L1 24.0488M17.875 1L6.9375 20.7561M1 24.0488H5.0625M16 10.878L10.375 20.7561M16 10.878L21.625 20.7561M10.375 20.7561H21.625M10.375 20.7561H6.9375M21.625 20.7561L23.5 24.0488H5.0625M6.9375 20.7561L5.0625 24.0488" stroke="#F6F7FF"/>
</symbol><symbol id="logo-min" viewBox="0 0 114 19">
<path d="M35.48 18H33.064V8.592H30.264C30.2 9.08267 30.1307 9.616 30.056 10.192C29.992 10.768 29.9173 11.3547 29.832 11.952C29.7573 12.5387 29.6773 13.0987 29.592 13.632C29.5067 14.1547 29.4213 14.6187 29.336 15.024C29.1973 15.6853 29.0107 16.2507 28.776 16.72C28.552 17.1893 28.2373 17.5467 27.832 17.792C27.4373 18.0373 26.92 18.16 26.28 18.16C25.864 18.16 25.48 18.1013 25.128 17.984V16C25.2667 16.0427 25.4 16.08 25.528 16.112C25.6667 16.144 25.816 16.16 25.976 16.16C26.2853 16.16 26.52 16 26.68 15.68C26.8507 15.3493 27.0213 14.736 27.192 13.84C27.256 13.4987 27.3467 12.9653 27.464 12.24C27.5813 11.5147 27.7093 10.6667 27.848 9.696C27.9973 8.71467 28.136 7.67467 28.264 6.576H35.48V18ZM38.3619 6.576H40.5379V12.096C40.5379 12.3627 40.5325 12.6613 40.5219 12.992C40.5112 13.3227 40.5005 13.648 40.4899 13.968C40.4792 14.2773 40.4685 14.5493 40.4579 14.784C40.4472 15.008 40.4365 15.1627 40.4259 15.248H40.4739L45.7539 6.576H48.6499V18H46.4899V12.512C46.4899 12.224 46.4952 11.9093 46.5059 11.568C46.5165 11.216 46.5272 10.88 46.5379 10.56C46.5592 10.24 46.5752 9.96267 46.5859 9.728C46.6072 9.48267 46.6232 9.32267 46.6339 9.248H46.5699L41.2739 18H38.3619V6.576ZM58.7498 6.576V8.576H53.9498V18H51.5338V6.576H58.7498ZM66.3695 18L65.5375 15.28H61.3775L60.5455 18H57.9375L61.9695 6.528H64.9295L68.9775 18H66.3695ZM64.9615 13.248L64.1295 10.592C64.0762 10.4107 64.0068 10.1813 63.9215 9.904C63.8362 9.62667 63.7508 9.344 63.6655 9.056C63.5802 8.768 63.5108 8.51733 63.4575 8.304C63.4042 8.51733 63.3295 8.784 63.2335 9.104C63.1482 9.41333 63.0628 9.712 62.9775 10C62.9028 10.2773 62.8442 10.4747 62.8015 10.592L61.9855 13.248H64.9615ZM75.0025 18V6.576H82.2185V8.576H77.4185V10.96H78.3785C79.4558 10.96 80.3358 11.1093 81.0185 11.408C81.7118 11.7067 82.2238 12.1173 82.5545 12.64C82.8852 13.1627 83.0505 13.76 83.0505 14.432C83.0505 15.5627 82.6718 16.4427 81.9145 17.072C81.1678 17.6907 79.9732 18 78.3305 18H75.0025ZM77.4185 16.016H78.2345C78.9705 16.016 79.5465 15.8987 79.9625 15.664C80.3892 15.4293 80.6025 15.0187 80.6025 14.432C80.6025 13.824 80.3732 13.424 79.9145 13.232C79.4558 13.04 78.8318 12.944 78.0425 12.944H77.4185V16.016ZM88.5976 9.088C89.771 9.088 90.667 9.344 91.2856 9.856C91.915 10.3573 92.2296 11.1307 92.2296 12.176V18H90.5656L90.1016 16.816H90.0376C89.6643 17.2853 89.2696 17.6267 88.8536 17.84C88.4376 18.0533 87.867 18.16 87.1416 18.16C86.363 18.16 85.7176 17.936 85.2056 17.488C84.6936 17.0293 84.4376 16.3307 84.4376 15.392C84.4376 14.464 84.763 13.7813 85.4136 13.344C86.0643 12.896 87.0403 12.6507 88.3416 12.608L89.8616 12.56V12.176C89.8616 11.7173 89.739 11.3813 89.4936 11.168C89.259 10.9547 88.9283 10.848 88.5016 10.848C88.075 10.848 87.659 10.912 87.2536 11.04C86.8483 11.1573 86.443 11.3067 86.0376 11.488L85.2536 9.872C85.723 9.62667 86.2403 9.43467 86.8056 9.296C87.3816 9.15733 87.979 9.088 88.5976 9.088ZM89.8616 13.952L88.9336 13.984C88.1656 14.0053 87.6323 14.144 87.3336 14.4C87.035 14.656 86.8856 14.992 86.8856 15.408C86.8856 15.7707 86.9923 16.032 87.2056 16.192C87.419 16.3413 87.6963 16.416 88.0376 16.416C88.5496 16.416 88.9816 16.2667 89.3336 15.968C89.6856 15.6587 89.8616 15.2267 89.8616 14.672V13.952ZM97.0539 9.264V12.624H100.382V9.264H102.766V18H100.382V14.4H97.0539V18H94.6699V9.264H97.0539ZM110.992 9.264H113.616L110.16 13.456L113.92 18H111.216L107.648 13.568V18H105.264V9.264H107.648V13.504L110.992 9.264Z" fill="#1F1E25"/>
<path d="M11.125 1H9.25L1 15.5122H3.4375L4.5625 13.439L11.125 1Z" fill="#2C36F2"/>
<path d="M2.125 18H17.875L11.125 5.14634L10 7.21951L13.375 13.439L14.5 15.5122H3.4375H1L2.125 18Z" fill="#2C36F2"/>
<path d="M14.5 15.5122L13.375 13.439H6.625H4.5625L3.4375 15.5122H14.5Z" fill="#2C36F2"/>
<path d="M17.875 18L19 15.5122L11.125 1L4.5625 13.439H6.625L10 7.21951L11.125 5.14634L17.875 18Z" fill="#2C36F2"/>
<path d="M10 7.21951L6.625 13.439H13.375L10 7.21951Z" fill="#2C36F2"/>
<path d="M17.875 18H2.125L1 15.5122M17.875 18L19 15.5122L11.125 1M17.875 18L11.125 5.14634L10 7.21951M11.125 1H9.25L1 15.5122M11.125 1L4.5625 13.439M1 15.5122H3.4375M10 7.21951L6.625 13.439M10 7.21951L13.375 13.439M6.625 13.439H13.375M6.625 13.439H4.5625M13.375 13.439L14.5 15.5122H3.4375M4.5625 13.439L3.4375 15.5122" stroke="#F6F7FF"/>
</symbol></svg>